<svg xmlns="http://www.w3.org/2000/svg" xmlns:xlink="http://www.w3.org/1999/xlink" aria-hidden="true" role="img" class="iconify iconify--logos" width="35.93" height="32" preserveAspectRatio="xMidYMid meet" viewBox="0 0 256 228"><path fill="#00D8FF" d="M210.483 73.824a171.49 171.49 0 0 0-8.24-2.597c.465-1.9.893-3.777 1.273-5.621c6.238-30.281 2.16-54.676-11.769-62.708c-13.355-7.7-35.196.329-59.909 21.525a171.23 171.23 0 0 0-5.154 4.843a155.866 155.866 0 0 0-4.532-4.843C96.887 1.22 74.9-6.81 61.544.89c-13.929 8.032-17.962 32.427-11.724 62.708a170.974 170.974 0 0 0 1.272 5.621a171.256 171.256 0 0 0-8.24 2.597C12.419 83.041 0 98.724 0 115.21c0 16.93 13.084 33.25 44.784 47.527a171.495 171.495 0 0 0 8.24 2.597a155.866 155.866 0 0 0-1.272 5.622c-6.238 30.28-2.16 54.675 11.769 62.707c13.355 7.699 35.196-.33 59.909-21.525a171.23 171.23 0 0 0 5.154-4.843a155.866 155.866 0 0 0 4.532 4.843c24.713 21.2 46.7 29.23 60.056 21.53c13.929-8.032 17.962-32.427 11.724-62.708a170.92 170.92 0 0 0-1.273-5.621c2.82-.857 5.576-1.776 8.24-2.598C243.916 148.46 256 132.777 256 116.29c0-16.93-13.084-33.25-45.517-42.466Zm-6.365 90.184a147.326 147.326 0 0 1-12.898 3.89c-1.19-5.308-2.675-10.752-4.433-16.298a122.394 122.394 0 0 0 8.24-2.373a134.18 134.18 0 0 0 9.091-3.217Zm9.978-20.865c-3.106 1.1-6.365 2.134-9.752 3.083a145.12 145.12 0 0 0-1.9-11.624a122.394 122.394 0 0 0 4.433-1.568a134.18 134.18 0 0 0 7.22-2.891Zm-9.978-50.454a134.18 134.18 0 0 0-9.091-3.217a122.394 122.394 0 0 0-8.24-2.373a145.12 145.12 0 0 0 4.433-16.298a147.326 147.326 0 0 1 12.898 3.89Zm-11.724-35.23a171.49 171.49 0 0 0-2.675-9.978c-8.654 2.205-17.737 4.843-27.096 7.847a122.394 122.394 0 0 0 5.622-13.819a147.326 147.326 0 0 1 24.149 15.95ZM128.142 13.6c5.622 4.699 11.01 9.72 16.066 15.03c-10.358 2.999-20.31 6.33-29.73 9.936a171.49 171.49 0 0 0-5.622-13.584c6.33-4.843 13.084-9.397 19.286-11.382Zm-45.517 4.843c6.202 1.985 12.956 6.539 19.286 11.382a171.49 171.49 0 0 0-5.622 13.584c-9.42-3.606-19.372-6.937-29.73-9.936c5.056-5.31 10.444-10.331 16.066-15.03Zm-24.383 26.1a147.326 147.326 0 0 1 24.149-15.95a122.394 122.394 0 0 0 5.622 13.819c-9.359-3.004-18.442-5.642-27.096-7.847a171.49 171.49 0 0 0-2.675 9.978Zm-9.752 50.454a147.326 147.326 0 0 1 12.898-3.89a145.12 145.12 0 0 0 4.433 16.298a122.394 122.394 0 0 0-8.24 2.373a134.18 134.18 0 0 0-9.091 3.217Zm0 41.318a134.18 134.18 0 0 0 9.091 3.217a122.394 122.394 0 0 0 8.24 2.373a145.12 145.12 0 0 0-4.433 16.298a147.326 147.326 0 0 1-12.898 3.89Zm11.724 35.23a147.326 147.326 0 0 1-24.149-15.95a171.49 171.49 0 0 0 2.675-9.978c8.654 2.205 17.737 4.843 27.096 7.847a122.394 122.394 0 0 0-5.622 13.819Zm45.517 35.23c-6.202-1.985-12.956-6.539-19.286-11.382a171.49 171.49 0 0 0 5.622-13.584c9.42 3.606 19.372 6.937 29.73 9.936c-5.056 5.31-10.444 10.331-16.066 15.03Zm45.517-4.843c-6.33-4.843-13.084-9.397-19.286-11.382a171.49 171.49 0 0 0 5.622-13.584c10.358 2.999 20.31 6.33 29.73 9.936c-5.056 5.31-10.444 10.331-16.066 15.03Zm24.383-26.1a147.326 147.326 0 0 1-24.149 15.95a122.394 122.394 0 0 0-5.622-13.819c9.359 3.004 18.442 5.642 27.096 7.847a171.49 171.49 0 0 0 2.675-9.978Zm9.752-50.454a134.18 134.18 0 0 0-9.091-3.217a122.394 122.394 0 0 0-8.24-2.373a145.12 145.12 0 0 0 1.9-11.624a134.18 134.18 0 0 0 7.22 2.891a122.394 122.394 0 0 0 4.433 1.568a145.12 145.12 0 0 0-1.9 11.624a122.394 122.394 0 0 0-4.433 1.568a134.18 134.18 0 0 0-7.22 2.891Zm-9.752 20.865a134.18 134.18 0 0 0 9.091-3.217a122.394 122.394 0 0 0 8.24-2.373a145.12 145.12 0 0 0-4.433-16.298a147.326 147.326 0 0 1-12.898 3.89Z"></path></svg>
